<svg xmlns="http://www.w3.org/2000/svg" viewBox="0 0 1500 1500" fill="none" role="img" aria-label="XAMANI">
  <path fill="#771335" fill-rule="evenodd" d="M 717.785156 125.59375 C 717.792969 133.128906 720.816406 206.953125 724.339844 285.644531 C 726.640625 337.078125 727.707031 359.230469 732.4375 454.101562 C 734.027344 485.925781 736.960938 547.75 738.960938 591.492188 C 741.570312 648.578125 743.125 671.769531 744.46875 673.667969 C 749.441406 680.699219 771.222656 707.511719 771.917969 707.453125 C 773.203125 707.347656 798.824219 674.332031 799.890625 671.398438 C 800.433594 669.914062 801.320312 651.890625 801.859375 631.347656 C 804.183594 543.207031 807.199219 464.675781 812.277344 360.351562 C 814.351562 317.738281 816.140625 280.328125 821.023438 177.246094 C 822.226562 151.867188 823.382812 128.464844 823.59375 125.242188 L 823.972656 119.382812 L 770.875 119 L 717.773438 118.617188 Z M 369.972656 371.703125 C 379.503906 384.449219 422.554688 440.101562 489.238281 525.878906 C 528.382812 576.234375 566.699219 625.671875 574.386719 635.742188 C 586.832031 652.042969 647.222656 730.527344 650.648438 734.855469 C 651.5625 736.007812 642.925781 748.75 623.851562 774.40625 C 587.640625 823.105469 462.996094 989.085938 417.542969 1049.125 C 398.207031 1074.667969 382.867188 1095.761719 383.453125 1096 C 384.039062 1096.242188 409.761719 1096.253906 440.609375 1096.035156 L 496.699219 1095.632812 L 608.863281 926.847656 C 670.554688 834.011719 724.3125 753.25 728.320312 747.371094 C 732.332031 741.496094 735.273438 735.796875 734.855469 734.707031 C 734.4375 733.617188 730.628906 727.875 726.390625 721.953125 C 721.046875 714.472656 715.726562 706.976562 710.429688 699.460938 C 705.890625 693.015625 678.546875 654.785156 649.667969 614.5 C 566.789062 498.894531 481.371094 379.238281 476.871094 372.4375 L 472.753906 366.210938 L 365.863281 366.210938 Z M 1053.953125 380.914062 C 1048.316406 388.972656 1039.359375 401.648438 1034.050781 409.085938 C 1018.132812 431.414062 1002.226562 453.746094 986.332031 476.074219 C 932.902344 551.125 878.417969 627.03125 818.425781 710.003906 C 808.988281 723.054688 801.269531 734.054688 801.269531 734.453125 C 801.269531 734.847656 804.964844 740.320312 809.480469 746.613281 C 813.996094 752.90625 845.417969 799.585938 879.308594 850.339844 C 930.984375 927.730469 966.296875 980.421875 1035.121094 1082.832031 L 1043.699219 1095.597656 L 1099.816406 1095.648438 C 1144.316406 1095.691406 1155.714844 1095.324219 1154.863281 1093.871094 C 1153.28125 1091.15625 1086.011719 1001.675781 1029.046875 926.511719 C 978.921875 860.371094 934.738281 801.945312 903.882812 760.996094 C 894.777344 748.921875 887.039062 738.269531 886.675781 737.332031 C 886.316406 736.394531 897.109375 721.210938 910.664062 703.59375 C 923.296875 687.171875 935.90625 670.726562 948.484375 654.261719 C 958.933594 640.582031 969.40625 626.921875 979.90625 613.285156 C 1023.367188 556.84375 1155.734375 384.230469 1165.160156 371.703125 L 1169.292969 366.210938 L 1064.207031 366.265625 Z M 140.625 737.335938 L 140.625 786.621094 L 151.246094 786.59375 C 162.285156 786.5625 178.882812 785.707031 263.671875 780.789062 C 291.46875 779.179688 337.609375 776.519531 366.210938 774.882812 C 394.8125 773.242188 456.042969 769.621094 502.277344 766.835938 L 586.339844 761.765625 L 593.097656 757.542969 C 596.8125 755.21875 606.28125 749.585938 614.136719 745.019531 C 621.992188 740.457031 628.417969 736.460938 628.417969 736.140625 C 628.417969 735.488281 596.433594 716.464844 589.597656 713.050781 C 584.738281 710.621094 582.191406 710.4375 491.453125 706.054688 C 337.523438 698.613281 279.667969 695.753906 268.800781 695.050781 C 244.933594 693.503906 183.164062 690.035156 162.230469 689.058594 L 140.625 688.050781 Z M 1345.457031 689.484375 C 1327.492188 690.65625 1223.835938 696.1875 1144.773438 700.195312 C 1043.746094 705.3125 958.878906 710.144531 953.453125 711.089844 C 950.28125 711.644531 914.628906 731.886719 910.644531 735.394531 C 909.976562 735.984375 918.757812 742.179688 930.164062 749.15625 L 950.894531 761.84375 L 970.929688 763.25 C 1003.046875 765.507812 1227.609375 779.003906 1286.863281 782.242188 C 1372.242188 786.902344 1383.007812 787.402344 1383.660156 786.75 C 1384 786.410156 1384.277344 764.160156 1384.277344 737.304688 L 1384.277344 688.476562 L 1368.53125 688.738281 C 1359.867188 688.886719 1349.488281 689.21875 1345.457031 689.484375 M 755.507812 761.351562 L 741.652344 780.027344 L 739.167969 854.003906 C 735.34375 967.640625 726.070312 1198.21875 721.40625 1295.429688 C 720.214844 1320.285156 719.238281 1342.203125 719.238281 1344.136719 L 719.238281 1347.65625 L 826.171875 1347.65625 L 826.167969 1342.894531 C 826.167969 1340.277344 825.1875 1320.667969 823.988281 1299.316406 C 822.789062 1277.964844 820.152344 1227.210938 818.125 1186.523438 C 815.957031 1143.0625 813.757812 1099.605469 811.523438 1056.152344 C 806.273438 954.683594 802.859375 881.863281 801.246094 837.15625 C 799.027344 775.605469 799.710938 779.757812 789.753906 767.167969 C 785.15625 761.351562 779.160156 753.460938 776.433594 749.632812 C 773.707031 745.804688 771 742.675781 770.417969 742.675781 C 769.835938 742.675781 763.125 751.078125 755.507812 761.351562"/>
</svg>
